<?xml version="1.0" standalone="no"?>
<!DOCTYPE svg PUBLIC "-//W3C//DTD SVG 20010904//EN"
 "http://www.w3.org/TR/2001/REC-SVG-20010904/DTD/svg10.dtd">
<svg version="1.0" xmlns="http://www.w3.org/2000/svg"
 width="1024.000000pt" height="1024.000000pt" viewBox="0 0 1024.000000 1024.000000"
 preserveAspectRatio="xMidYMid meet">

<g transform="translate(0.000000,1024.000000) scale(0.125000,-0.115000)"
fill="#9ac457" stroke="none">
<path d="M3845 7804 c-219 -22 -380 -67 -570 -158 -291 -141 -515 -356 -648
-621 -32 -64 -40 -72 -93 -99 -175 -85 -266 -224 -251 -385 5 -54 3 -58 -38
-111 -360 -466 -470 -1121 -284 -1690 180 -549 661 -1013 1269 -1225 120 -41
330 -95 375 -95 58 0 58 0 35 -201 -22 -188 -63 -445 -103 -636 l-22 -108
-1045 -5 c-980 -5 -1045 -6 -1048 -22 -5 -28 36 -184 75 -283 166 -422 486
-729 903 -865 52 -17 181 -47 285 -68 l190 -37 2285 0 2285 0 185 38 c219 45
326 80 475 153 270 132 521 392 655 678 52 110 108 278 116 349 l7 57 -714 0
-714 -1 -3 546 c-2 594 0 631 53 721 32 54 94 108 144 122 21 7 94 12 162 12
185 1 257 23 354 112 105 95 157 225 159 388 1 91 -2 111 -23 153 -46 93 -104
117 -291 117 l-126 0 -54 98 c-75 132 -192 250 -307 310 -143 74 -299 99 -435
71 -118 -25 -240 -115 -288 -214 -24 -49 -25 -56 -28 -330 -4 -332 1 -367 62
-433 49 -54 88 -72 156 -72 62 0 105 17 146 59 61 60 69 89 74 281 5 188 9
204 60 240 45 32 90 36 138 11 75 -38 77 -45 77 -301 l0 -227 -42 -85 c-88
-176 -262 -288 -448 -288 -175 0 -367 113 -460 269 l-30 51 -310 -1 c-215 0
-333 -4 -385 -13 -294 -53 -544 -277 -615 -551 -12 -49 -15 -142 -15 -552 l0
-493 -389 0 c-215 0 -392 4 -395 9 -30 48 -162 909 -142 928 2 3 53 15 113 28
146 31 267 68 396 122 l108 45 61 122 c33 66 81 152 106 190 162 245 438 418
747 469 l79 13 63 120 c68 131 133 313 158 444 28 152 39 363 27 506 -31 342
-138 629 -363 969 -78 118 -115 185 -124 220 -29 122 -95 203 -220 267 l-85
43 -61 108 c-204 363 -602 634 -1039 706 -126 20 -302 32 -375 25z m210 -1256
c73 -49 69 -21 75 -631 l5 -549 70 48 c164 111 328 274 476 470 84 113 124
139 205 132 98 -8 160 -83 152 -183 -3 -41 -15 -69 -51 -126 -139 -223 -353
-437 -635 -637 -132 -94 -195 -153 -212 -198 -10 -25 -15 -624 -5 -624 11 0
206 116 264 158 155 110 298 249 447 434 107 132 138 159 199 165 121 14 215
-95 185 -216 -16 -66 -101 -187 -238 -336 -177 -194 -318 -308 -602 -489 -94
-59 -185 -122 -202 -139 -60 -60 -58 -39 -58 -727 l0 -630 -170 0 -170 0 0
618 c0 407 -4 630 -11 656 -17 61 -80 119 -232 213 -307 189 -560 408 -755
653 -101 126 -128 184 -117 250 8 46 38 94 78 124 37 27 140 30 179 4 15 -10
69 -68 121 -130 191 -229 326 -357 505 -476 85 -57 214 -132 227 -132 3 0 5
139 3 309 l-3 309 -30 44 c-18 26 -75 75 -140 121 -266 191 -485 394 -623 578
-123 165 -145 235 -102 319 29 57 73 84 145 88 54 3 64 1 102 -27 23 -16 59
-56 81 -88 116 -171 338 -388 503 -492 l64 -41 5 548 c6 621 2 592 90 640 55
29 125 25 175 -10z m2635 -3500 c72 -35 130 -86 168 -145 49 -78 62 -139 62
-295 l0 -138 -606 0 -606 0 4 158 c5 185 21 240 94 321 52 57 92 84 166 112
49 17 78 19 358 16 l305 -2 55 -27z"/>
</g>
</svg>
