<svg xmlns="http://www.w3.org/2000/svg" viewBox="0 0 653.7 515.7">
  <path stroke="#7dc95e" fill="#7dc95e" fill-rule="evenodd" d="M474 1c-4 2-6 7-6 11l6 20a201 201 0 0 1 10 95c-1 9-3 14-7 22-5 11-6 11-21 14l-31 8c-42 10-70 14-102 17-32 2-60-1-62-7l-3-17c-2-27-3-32-5-36-4-8-13-11-20-6-2 1-4 4-7 10l-5 11-1 3-5-14c-11-36-19-48-33-49-7-1-9 0-14 4s-7 9-10 23c-4 15-5 22-7 44 0 9-1 16-2 16a828 828 0 0 1-91 0c-32-2-37-1-48 11-9 11-12 20-9 31l2 13c1 16 7 32 15 45 6 9 21 24 31 30 35 21 73 18 113-8l11-7 6 7c27 34 45 58 48 64 2 5 1 14-2 26a1062 1062 0 0 0-18 94l-11 3c-14 3-18 5-21 9-2 5-2 7 1 11 4 6 10 7 23 4l14-3h6l-1 4c0 4 1 5 4 8 4 4 5 4 8 4 7-1 30-18 33-25a555 555 0 0 1 35-109c1-3 3-3 5-1 4 5 20 12 36 14 13 3 36 3 50 0a415 415 0 0 0 92-25c3 0 18 45 26 76l7 25c3 7 3 9-1 9-2 0-7 7-7 9 0 4 2 8 6 10 3 2 5 2 14 2h11l3-3c3-3 3-4 3-10a688 688 0 0 1-15-55 762 762 0 0 0-23-77c7-3 9-6 17-15s9-10 16-14l25-10c41-14 60-23 85-38l4-6c2-4 2-5 1-17l-3-16c-3-6-10-8-16-5-5 3-7 8-5 21l1 5-8 5a861 861 0 0 1-87 35l-4-30c-5-50-10-74-20-105l-7-19 2-6c7-26 7-55-1-88-3-13-12-42-15-46-3-6-11-9-16-6M181 115c-2 5-4 18-5 32l-6 48c-2 4-7 6-11 5l-7-3-3-3-33 1a639 639 0 0 1-45 0l-11-1v8c0 7 0 10-3 16-5 12-8 15-20 15l-8 1c-1 1 2 11 5 17 11 22 38 39 60 39 5 0 6 0 9-4s4-7 6-20c2-9 2-10 5-12 6-6 15-3 16 4 1 3 0 20-2 23-2 5 11-1 29-15l15-9c7-1 12 3 38 37 29 35 31 38 36 49l5 10v11c0 9 0 14-3 27-6 22-16 77-16 82 0 2 1 2 6 2s6 0 7-3l1-8c0-7 7-30 21-67l10-26c2-8 3-10 9-15 7-6 10-6 21 0 4 2 9 5 10 7 11 9 46 13 74 8a326 326 0 0 0 95-31c8-3 13-7 20-16 4-5 5-6 5-10 0-5-3-41-6-61-3-24-10-62-13-69-2-4-7-5-16-2-6 3-48 13-73 18a444 444 0 0 1-131 10h-7l-3 8c-9 27-33 59-48 63-7 2-13-2-13-9 0-5 1-7 11-17l14-16c5-8 14-25 16-32 2-5 2-5 1-7-3-3-4-6-6-14l-2-8-3 5c-2 7-4 10-9 12-7 3-13 0-17-9l-10-34c-9-29-12-39-14-39l-1 2m-54 94c-4 4-5 7-2 11 3 6 14 7 17 2 2-3 2-9 1-11-4-5-12-6-16-2m414 141c-3 3-3 4-3 7 0 4 0 5 3 7 5 5 13 3 15-3 2-3 2-4 1-6-2-4-6-7-10-7l-6 2m23 16c-8 4-5 17 4 17 5 0 7-1 8-4 4-8-4-16-12-13m20 25-4 4c-2 6 7 12 12 7s-1-14-8-11m8 20c-5 5-1 14 6 14 4 0 7-3 7-8 0-4-4-8-8-8l-5 2m10 21-3 3c-2 8 6 14 11 9s-1-15-8-12m4 23c-3 5-3 11 1 15l5 3 5-3c2-2 3-4 3-7 0-7-3-10-8-10-3 0-5 0-6 2m-11 38c-6 1-8 10-4 14 4 3 10 5 21 6 8 0 11 0 18-2 19-6 21-11 6-16-6-2-9-3-23-3l-18 1"/>
</svg>
