<svg xmlns="http://www.w3.org/2000/svg" width="788" height="656" viewBox="0 0 788 656" version="1.1">
	<path d="M 528.763 54.565 C 525.533 56.318, 522.999 60.776, 523.003 64.700 C 523.004 66.240, 525.727 75.600, 529.054 85.500 C 537.826 111.606, 541.067 128.146, 541.693 150 C 542.151 165.953, 541.972 168.593, 539.669 179.863 C 537.703 189.490, 536.076 194.360, 532.322 201.863 C 526.766 212.967, 526.635 213.060, 511.666 216.580 C 506.075 217.894, 492.050 221.193, 480.500 223.909 C 438.597 233.764, 409.998 238.527, 378.050 240.971 C 345.970 243.425, 318.305 240.563, 316.021 234.554 C 315.578 233.390, 314.484 225.701, 313.591 217.468 C 310.681 190.668, 309.893 185.562, 308.001 181.277 C 304.590 173.551, 295.484 170.684, 288.352 175.091 C 285.883 176.618, 283.909 179.385, 281.045 185.341 C 278.886 189.829, 276.815 194.757, 276.441 196.294 C 276.067 197.830, 275.304 198.935, 274.745 198.748 C 274.186 198.562, 272.025 192.580, 269.942 185.455 C 259.374 149.301, 251.535 137.372, 237.581 136.215 C 230.430 135.622, 227.800 136.359, 223.459 140.170 C 218.464 144.556, 216.378 149.184, 213.047 163.270 C 209.561 178.009, 208.449 185.434, 206.513 206.899 C 205.700 215.919, 204.863 223.470, 204.654 223.679 C 204.445 223.889, 188.799 224.330, 169.887 224.659 C 142.555 225.135, 130.833 224.909, 112.753 223.557 C 81.119 221.192, 76.441 222.281, 65.597 234.533 C 56.026 245.348, 53.287 254.585, 56.396 265.568 C 57.164 268.281, 58.049 274.100, 58.363 278.500 C 59.464 293.932, 64.837 309.913, 73.492 323.500 C 79.230 332.508, 94.081 346.801, 103.991 352.854 C 138.857 374.150, 177.181 371.527, 217.275 345.102 L 227.928 338.081 233.850 345.290 C 261.387 378.815, 279.468 402.942, 282.090 409.661 C 283.813 414.077, 283.212 423.475, 280.437 435.500 C 274.255 462.288, 271.813 474.253, 267.089 500.889 C 264.320 516.503, 261.930 529.395, 261.777 529.538 C 261.625 529.681, 256.775 530.790, 251 532.002 C 237.090 534.923, 232.744 536.911, 230.656 541.312 C 228.516 545.823, 228.573 547.787, 230.960 551.701 C 234.925 558.206, 240.903 559.318, 254.500 556.082 C 258.900 555.035, 265.019 553.870, 268.098 553.493 L 273.696 552.807 273.598 557.480 C 273.510 561.682, 273.889 562.509, 277.363 565.694 C 280.807 568.850, 281.686 569.183, 285.462 568.757 C 292.564 567.957, 315.094 551.220, 318.399 544.290 C 320.450 539.988, 323.997 525.078, 324.008 520.711 C 324.018 516.695, 335.326 482.787, 345.255 457 C 349.385 446.275, 353.072 436.488, 353.449 435.250 C 354.239 432.659, 356.201 432.333, 357.995 434.494 C 362.015 439.337, 378.359 445.743, 394 448.604 C 406.774 450.941, 429.994 450.956, 444 448.637 C 476.479 443.259, 522.490 430.998, 531.229 425.392 C 533.279 424.076, 535.582 423, 536.346 423 C 538.949 423, 554.275 467.778, 562.359 499 C 564.851 508.625, 568.042 519.847, 569.449 523.938 C 572.016 531.396, 571.829 532.938, 568.354 532.985 C 566.374 533.011, 561 539.956, 561 542.488 C 561 546.421, 563.106 549.901, 566.922 552.275 C 570.041 554.215, 571.876 554.500, 581.229 554.500 L 591.957 554.500 595.229 551.228 C 598.295 548.161, 598.496 547.536, 598.432 541.228 C 598.378 535.952, 597.263 531.156, 593.262 519 C 590.456 510.475, 586.060 495.505, 583.495 485.733 C 578.633 467.219, 567.282 432.224, 561.724 418.615 C 558.639 411.061, 558.581 410.674, 560.371 409.611 C 566.700 405.852, 569.364 403.390, 577 394.246 C 584.742 384.974, 586.225 383.708, 593.629 380.052 C 598.100 377.844, 609.350 373.373, 618.629 370.116 C 659.327 355.830, 677.715 347.482, 702.778 331.915 C 704.030 331.137, 706.020 328.512, 707.198 326.081 C 709.256 321.840, 709.295 321.165, 708.170 309.231 C 707.504 302.165, 706.293 295.312, 705.364 293.355 C 702.607 287.545, 695.209 285.289, 689.165 288.415 C 683.900 291.137, 682.591 296.634, 684.241 309.096 L 684.981 314.691 676.741 319.401 C 663.890 326.744, 649.831 333.225, 633.500 339.333 C 617.191 345.433, 589.666 355.033, 589.426 354.704 C 589.344 354.592, 587.844 340.775, 586.094 324 C 580.848 273.738, 576.306 250.405, 565.688 219.173 L 559.328 200.466 561.102 194.172 C 568.380 168.365, 567.999 138.923, 559.964 106.015 C 556.814 93.119, 547.762 64.474, 545.329 59.706 C 542.355 53.879, 534.513 51.445, 528.763 54.565 M 235.964 168.595 C 234.375 172.774, 232.225 186.538, 231.058 200 C 228.388 230.798, 226.608 245.707, 225.290 248.329 C 223.531 251.826, 217.884 254.353, 213.822 253.461 C 212.188 253.102, 209.367 251.505, 207.553 249.912 L 204.255 247.016 171.087 248.042 C 152.845 248.606, 137.593 248.866, 137.194 248.620 C 136.795 248.373, 131.765 248.045, 126.017 247.891 L 115.564 247.610 115.450 255.555 C 115.357 261.938, 114.710 265.090, 112.159 271.584 C 107.493 283.459, 103.691 286.316, 92.227 286.558 C 88.227 286.643, 84.659 287.007, 84.299 287.368 C 83.453 288.214, 86.581 298.192, 89.518 304.015 C 100.461 325.711, 126.803 342.927, 149.146 342.985 C 154.329 342.999, 155.039 342.719, 157.791 339.586 C 161.498 335.363, 162.543 332.186, 164.399 319.507 C 165.719 310.482, 166.160 309.246, 168.946 306.757 C 174.793 301.532, 183.749 304.166, 185.630 311.664 C 186.317 314.399, 184.692 331.034, 183.412 334.369 C 181.581 339.141, 193.813 332.945, 212.500 319.634 C 219.100 314.933, 225.736 310.807, 227.247 310.465 C 234.438 308.836, 238.749 312.926, 265.579 346.827 C 293.877 382.585, 296.104 385.644, 301.266 395.845 L 306.500 406.189 306.438 417.345 C 306.386 426.536, 305.733 431.228, 302.725 444 C 297.603 465.754, 287 521.194, 287 526.225 C 287 527.725, 287.916 528, 292.902 528 C 298.623 528, 298.838 527.903, 299.902 524.851 C 300.506 523.119, 301 519.601, 301 517.033 C 301 509.985, 308.201 487.671, 322.428 450.631 C 326.625 439.703, 330.915 427.673, 331.961 423.897 C 334.197 415.831, 334.948 414.646, 341.311 409.153 C 347.836 403.520, 351.616 403.518, 361.915 409.143 C 366.087 411.422, 370.926 414.526, 372.668 416.041 C 383.576 425.524, 417.725 429.252, 446.500 424.100 C 481.066 417.912, 514.670 408.336, 527.500 401.018 C 531.350 398.822, 537.669 395.513, 541.543 393.664 C 549.541 389.847, 554.233 386.030, 561.170 377.698 C 565.446 372.561, 566 371.353, 566 367.162 C 566 361.832, 562.772 326.485, 560.414 306 C 557.672 282.184, 550.142 244.224, 546.768 237.213 C 544.832 233.189, 540.086 232.655, 531.529 235.497 C 524.858 237.714, 482.791 247.938, 458 253.370 C 423.382 260.954, 393.585 264.314, 360 264.420 C 345.975 264.464, 331.288 264.122, 327.362 263.660 L 320.224 262.820 317.572 270.783 C 308.515 297.979, 284.132 330.088, 269.460 334.139 C 262.396 336.089, 256 331.732, 256 324.969 C 256 320.409, 257.308 318.472, 267.460 308 C 272.526 302.775, 278.545 295.712, 280.836 292.303 C 286.159 284.385, 295.223 267.035, 297.563 260.284 C 299.203 255.551, 299.227 254.902, 297.814 253.284 C 294.983 250.040, 293.777 246.775, 292.601 239.168 C 291.961 235.031, 290.995 231.498, 290.455 231.318 C 289.915 231.138, 288.637 233.355, 287.615 236.245 C 285.051 243.497, 282.686 246.508, 278.120 248.335 C 271.020 251.176, 265.061 247.866, 261.369 239.031 C 260.571 237.123, 255.858 221.823, 250.895 205.031 C 242.388 176.252, 238.878 166, 237.531 166 C 237.212 166, 236.506 167.168, 235.964 168.595 M 181.735 262.537 C 178.157 266.116, 177.535 269.517, 179.760 273.337 C 183.219 279.276, 193.711 280.106, 197.471 274.739 C 199.291 272.140, 199.428 266.141, 197.718 263.913 C 194.160 259.278, 185.721 258.552, 181.735 262.537 M 596.077 403.589 C 593.515 405.744, 593 406.901, 593 410.500 C 593 414.099, 593.515 415.256, 596.077 417.411 C 601.301 421.807, 608.870 420.439, 611.656 414.594 C 613.072 411.627, 613.117 410.697, 611.981 407.953 C 610.454 404.268, 605.693 401.009, 601.827 401.004 C 600.356 401.002, 597.769 402.165, 596.077 403.589 M 619.421 419.396 C 611.022 423.115, 613.871 436, 623.093 436 C 628.261 436, 629.832 435.226, 631.600 431.806 C 635.546 424.176, 627.391 415.867, 619.421 419.396 M 639.017 444.293 C 637.651 444.980, 636.101 446.771, 635.573 448.273 C 633.414 454.413, 642.289 459.711, 646.941 455.059 C 652.249 449.751, 645.742 440.910, 639.017 444.293 M 647.455 464.455 C 642.325 469.584, 646.018 478, 653.398 478 C 657.592 478, 660 475.167, 660 470.232 C 660 466.156, 656.213 462, 652.500 462 C 651.075 462, 648.805 463.105, 647.455 464.455 M 657.375 484.994 C 656.207 485.461, 654.806 487.118, 654.263 488.677 C 651.725 495.955, 659.792 502.208, 665 497 C 670.259 491.741, 664.235 482.254, 657.375 484.994 M 661.073 508.635 C 657.836 512.750, 658.226 519.380, 661.923 523.077 C 663.531 524.685, 665.815 526, 667 526 C 668.185 526, 670.469 524.685, 672.077 523.077 C 674.430 520.724, 675 519.288, 675 515.712 C 675 509.478, 672.135 506, 667 506 C 664.027 506, 662.671 506.602, 661.073 508.635 M 649.956 545.809 C 644.096 547.604, 641.949 555.724, 646.264 559.778 C 650.361 563.627, 655.992 565.274, 666.793 565.782 C 675.499 566.191, 678.273 565.917, 684.793 564 C 703.921 558.377, 706.072 552.896, 691.134 547.841 C 685.395 545.899, 682.268 545.581, 667.956 545.479 C 658.857 545.415, 650.757 545.563, 649.956 545.809" stroke="#7dc95e" fill="#7dc95e" fill-rule="evenodd"/>
</svg>