<svg xmlns="http://www.w3.org/2000/svg" width="24" height="24" viewBox="0 0 256 262">
  <path fill="#4285F4" d="M255.68 133.48c0-10.36-.93-20.3-2.67-30H130v56.84h70.76c-3.05 16.3-12.52 30.1-26.7 39.32v32h43.24c25.3-23.32 38.38-57.72 38.38-98.16z"/>
  <path fill="#34A853" d="M130 261c35.1 0 64.58-11.64 86.1-31.54l-43.24-32c-11.98 8.04-27.28 12.72-42.86 12.72-32.92 0-60.8-22.2-70.76-52.1H14.18v32.84C35.88 232.66 80.4 261 130 261z"/>
  <path fill="#FBBC05" d="M59.24 158.08c-2.8-8.4-4.4-17.32-4.4-26.48s1.6-18.08 4.4-26.48V72.28H14.18C5.02 89.48 0 109.12 0 131.6s5.02 42.12 14.18 59.32l45.06-32.84z"/>
  <path fill="#EA4335" d="M130 51.48c18.92 0 35.9 6.52 49.28 19.28l36.92-36.92C194.58 12.56 165.1 0 130 0 80.4 0 35.88 28.34 14.18 72.28l45.06 32.84C69.2 73.68 97.08 51.48 130 51.48z"/>
</svg>
